<svg width="765" height="612" viewBox="0 0 765 612" fill="none" xmlns="http://www.w3.org/2000/svg">
    <g clip-path="url(#clip0_490_4306)">
        <path d="M128.386 611.843C128.386 611.843 117.364 584.72 150.427 564.379L128.386 611.843Z" fill="#DEDEDE"/>
        <path d="M114.831 611.349C114.831 611.349 111.469 592.018 85.4478 592.184L114.831 611.349Z" fill="#DEDEDE"/>
        <path d="M497.403 611.843C497.403 611.843 486.382 584.72 519.445 564.379L497.403 611.843Z" fill="#DEDEDE"/>
        <path d="M483.849 611.349C483.849 611.349 480.487 592.018 454.466 592.184L483.849 611.349Z" fill="#DEDEDE"/>
        <path d="M488.326 436.23C541.235 436.23 584.126 393.348 584.126 340.451C584.126 287.553 541.235 244.671 488.326 244.671C435.417 244.671 392.525 287.553 392.525 340.451C392.525 393.348 435.417 436.23 488.326 436.23Z" fill="#DEDEDE"/>
        <path d="M488.588 340.45H488.852L493.589 612H483.588L488.588 340.45Z" fill="#DEDEDE"/>
        <path d="M694.008 483.798C732.598 483.798 763.882 452.521 763.882 413.94C763.882 375.358 732.598 344.081 694.008 344.081C655.417 344.081 624.134 375.358 624.134 413.94C624.134 452.521 655.417 483.798 694.008 483.798Z" fill="#DEDEDE"/>
        <path d="M694.2 413.939H694.391L697.847 612H690.552L694.2 413.939Z" fill="#DEDEDE"/>
        <path d="M307.078 414.649C308.417 414.495 309.705 414.05 310.853 413.345C312.001 412.64 312.98 411.691 313.721 410.567C314.463 409.442 314.949 408.169 315.145 406.836C315.341 405.503 315.242 404.144 314.856 402.853L341.417 383.7L325.508 377.659L302.724 396.774C300.598 397.566 298.838 399.111 297.775 401.114C296.713 403.118 296.423 405.442 296.959 407.645C297.496 409.849 298.823 411.779 300.688 413.069C302.553 414.36 304.826 414.922 307.078 414.649H307.078Z" fill="#DEDEDE"/>
        <path d="M287.606 602.527L279.172 602.526L275.16 570.003H287.608L287.606 602.527Z" fill="#DEDEDE"/>
        <path d="M289.757 610.701L262.562 610.7V610.356C262.562 607.549 263.677 604.858 265.662 602.873C267.648 600.889 270.34 599.774 273.147 599.773H273.148L289.757 599.774L289.757 610.701Z" fill="#4FAC55"/>
        <path d="M223.185 602.527L214.751 602.526L210.739 570.003H223.186L223.185 602.527Z" fill="#DEDEDE"/>
        <path d="M225.336 610.701L198.142 610.7V610.356C198.142 607.549 199.257 604.858 201.242 602.873C203.227 600.889 205.919 599.774 208.727 599.773H208.727L225.337 599.774L225.336 610.701Z" fill="#4FAC55"/>
        <path d="M229.7 421.669L211.826 519.393L205.574 597.015L225.871 596.017L237.425 520.64L266.142 455.009L274.689 595.836L293.374 595.896L303.427 417.76L229.7 421.669Z" fill="#1E484B"/>
        <path d="M305.715 309.815L280.663 299.849L251.922 303.136L227.558 316.602C227.558 316.602 235.011 410.053 224.208 431.973C224.208 431.973 232.863 443.96 268.132 441.034C268.132 441.034 302.487 436.693 303.339 425.429C304.191 414.166 304.37 393.688 304.37 393.688L316.295 352.603L305.715 309.815Z" fill="#0FA5A8"/>
        <path d="M237.351 318.401L227.557 316.603C227.557 316.603 217.137 321.17 217.244 334.782C217.351 348.394 198.836 394.028 220.988 395.942C243.14 397.855 237.351 363.58 237.351 363.58V318.401Z" fill="#0FA5A8"/>
        <path d="M297.769 315.613L305.715 309.815C305.715 309.815 317.846 312.555 322.334 322.318C322.334 322.318 372.083 358.391 358.399 372.072C344.715 385.752 316.821 402.59 316.821 402.59L306.494 390.899L332.117 367.692L311.096 348.547L297.769 315.613Z" fill="#0FA5A8"/>
        <path d="M285.065 273.939C285.061 279.39 282.892 284.617 279.036 288.471C275.179 292.324 269.949 294.489 264.497 294.489C259.044 294.489 253.815 292.324 249.958 288.471C246.101 284.617 243.933 279.39 243.929 273.939V273.15C244.14 267.771 246.452 262.69 250.368 258.997C254.284 255.303 259.493 253.292 264.876 253.396C270.259 253.499 275.386 255.708 279.158 259.549C282.93 263.39 285.045 268.556 285.049 273.939H285.065Z" fill="#DEDEDE"/>
        <path d="M267.623 270.624C268.939 270.408 270.365 270.203 271.544 270.808C274.107 272.119 273.518 275.833 274.918 278.285C275.47 279.259 276.365 280.053 276.733 281.106C277.102 282.158 276.875 283.473 277.454 284.489C278.291 285.957 280.56 286.173 282.049 285.299C283.458 284.324 284.479 282.884 284.933 281.232C285.428 279.832 285.844 278.285 287.038 277.37C287.473 277.123 287.862 276.804 288.191 276.428C288.438 275.93 288.533 275.37 288.465 274.818C288.465 271.261 287.912 268.504 288.717 265.057C290.007 259.501 291.186 256.754 287.101 252.634C285.011 250.551 282.32 249.174 279.407 248.698C276.775 248.267 272.902 251.939 270.239 251.855C263.465 251.587 257.75 245.315 251.292 247.341C248.469 248.227 246.021 250.029 244.335 252.46C241.177 257.112 241.461 258.911 241.919 264.463C241.912 264.884 242.035 265.297 242.271 265.647C242.508 265.931 242.892 266.083 243.124 266.373C243.373 266.755 243.467 267.218 243.387 267.667C243.317 268.571 243.105 269.459 242.761 270.298C242.674 270.438 242.62 270.596 242.604 270.761C242.588 270.925 242.609 271.09 242.666 271.245C242.796 271.421 242.981 271.547 243.192 271.603C245.824 272.55 248.666 270.724 251.482 270.772C254.297 270.819 256.971 272.703 259.876 272.292C262.439 271.898 265.039 271.05 267.623 270.624Z" fill="#232323"/>
        <path d="M267.487 384.943C267.312 385.01 267.13 385.057 266.943 385.083L244.105 388.27C243.552 388.349 242.989 388.238 242.509 387.955C242.028 387.671 241.658 387.233 241.459 386.711L221.801 335.569C221.673 335.238 221.619 334.883 221.641 334.529C221.663 334.175 221.762 333.83 221.929 333.517C222.097 333.205 222.33 332.932 222.613 332.718C222.895 332.503 223.221 332.352 223.567 332.275H223.567L245.045 327.483C245.21 327.446 245.371 327.387 245.521 327.309L266.411 316.389C266.572 316.305 266.743 316.239 266.919 316.192L289.908 310.064C290.497 309.906 291.123 309.972 291.666 310.249C292.209 310.526 292.631 310.994 292.848 311.564L309.989 356.157C310.14 356.545 310.189 356.965 310.132 357.378C310.076 357.791 309.915 358.182 309.665 358.516L303.737 366.475C303.458 366.849 303.079 367.137 302.643 367.304L289.687 372.282C289.594 372.318 289.504 372.361 289.418 372.41L267.83 384.78C267.72 384.843 267.605 384.897 267.487 384.943Z" fill="white"/>
        <path d="M278.113 316.882L275.193 317.66L267.457 319.723L267.443 319.726L256.852 325.263L252.921 327.318L252.919 327.319L247.016 330.405L246.854 330.441L240.721 331.808L237.757 332.471L225.668 335.168L244.646 384.539L257.104 382.801L260.158 382.374L266.668 381.464L266.744 381.454L287.664 369.467L300.392 364.576L306.203 356.775L289.684 313.798L278.113 316.882Z" fill="#C0C0C0"/>
        <path d="M292.405 320.879L229.471 345.06L230.548 347.863L293.483 323.682L292.405 320.879Z" fill="white"/>
        <path d="M295.998 330.225L233.063 354.406L234.141 357.21L297.076 333.029L295.998 330.225Z" fill="white"/>
        <path d="M303.255 349.104L240.32 373.284L241.398 376.088L304.333 351.907L303.255 349.104Z" fill="white"/>
        <path d="M278.113 316.882L296.954 365.898L294.15 366.975L275.193 317.661L278.113 316.882Z" fill="white"/>
        <path d="M256.852 325.263L252.983 336.026L251.642 339.759L248.513 348.47L247.842 350.332L247.17 352.203L246.287 354.66L239.945 372.307L238.296 368.018L243.467 353.626L244.637 350.368L244.809 349.893L246.192 346.04L247.938 341.183L249.28 337.448L252.919 327.32L252.921 327.319L256.852 325.263Z" fill="white"/>
        <path d="M240.722 331.808L260.158 382.374L257.104 382.801L237.757 332.471L240.722 331.808Z" fill="white"/>
        <path d="M236.561 380.228C241.503 380.228 245.508 376.223 245.508 371.282C245.508 366.342 241.503 362.337 236.561 362.337C231.62 362.337 227.614 366.342 227.614 371.282C227.614 376.223 231.62 380.228 236.561 380.228Z" fill="#DEDEDE"/>
        <path d="M606.006 317.918C693.816 317.918 765 246.749 765 158.959C765 71.1683 693.816 0 606.006 0C518.197 0 447.013 71.1683 447.013 158.959C447.013 246.749 518.197 317.918 606.006 317.918Z" fill="#DEDEDE"/>
        <path opacity="0.1" d="M723.402 52.7869C738.233 87.4705 740.245 126.296 729.078 162.327C717.912 198.357 694.295 229.243 662.448 249.467C630.6 269.691 592.598 277.934 555.231 272.724C517.865 267.513 483.569 249.188 458.472 221.024C467.531 242.214 481.091 261.182 498.21 276.613C515.33 292.044 535.6 303.569 557.618 310.39C579.635 317.211 602.872 319.165 625.719 316.116C648.567 313.067 670.478 305.089 689.935 292.733C709.392 280.377 725.929 263.94 738.401 244.56C750.874 225.181 758.982 203.321 762.166 180.497C765.349 157.673 763.531 134.43 756.838 112.378C750.145 90.3263 738.736 69.9929 723.402 52.7869Z" fill="black"/>
        <path d="M605.3 159H604.863L597 609.675H613.599L605.3 159Z" fill="#DEDEDE"/>
    </g>
    <defs>
        <clipPath id="clip0_490_4306">
            <rect width="765" height="612" fill="white"/>
        </clipPath>
    </defs>
</svg>
