<svg width="400" height="308" viewBox="0 0 400 308" fill="none" xmlns="http://www.w3.org/2000/svg">
    <path d="M9.968 206.369V174.706L69.9715 89.0988H111.993V173.143H127.043V206.369H111.993V229.823H73.2941V206.369H9.968ZM76.2259 132.293L49.2536 173.143H76.2259V132.293ZM142.759 156.334C142.759 133.922 147.319 116.266 156.44 103.367C165.561 90.4669 179.894 84.017 199.439 84.017C218.985 84.017 233.318 90.4669 242.439 103.367C251.69 116.266 256.316 133.922 256.316 156.334C256.316 179.006 251.755 196.792 242.634 209.692C233.513 222.592 219.115 229.042 199.439 229.042C179.764 229.042 165.366 222.592 156.245 209.692C147.254 196.792 142.759 179.006 142.759 156.334ZM218.398 156.334C218.398 144.607 217.16 135.681 214.685 129.557C212.209 123.303 207.127 120.175 199.439 120.175C191.752 120.175 186.67 123.303 184.194 129.557C181.719 135.681 180.481 144.607 180.481 156.334C180.481 168.322 181.653 177.443 183.999 183.697C186.474 189.821 191.621 192.883 199.439 192.883C207.257 192.883 212.339 189.821 214.685 183.697C217.16 177.443 218.398 168.322 218.398 156.334ZM273.56 206.369V174.706L333.563 89.0988H375.585V173.143H390.635V206.369H375.585V229.823H336.886V206.369H273.56ZM339.818 132.293L312.845 173.143H339.818V132.293Z" fill="#DEDEDE"/>
    <path d="M9.968 191.546V159.883L69.9715 74.2753H111.993V158.319H127.043V191.546H111.993V215H73.2941V191.546H9.968ZM76.2259 117.47L49.2536 158.319H76.2259V117.47ZM142.759 141.51C142.759 119.099 147.319 101.443 156.44 88.5432C165.561 75.6434 179.894 69.1936 199.439 69.1936C218.985 69.1936 233.318 75.6434 242.439 88.5432C251.69 101.443 256.316 119.099 256.316 141.51C256.316 164.183 251.755 181.969 242.634 194.869C233.513 207.768 219.115 214.218 199.439 214.218C179.764 214.218 165.366 207.768 156.245 194.869C147.254 181.969 142.759 164.183 142.759 141.51ZM218.398 141.51C218.398 129.783 217.16 120.858 214.685 114.734C212.209 108.479 207.127 105.352 199.439 105.352C191.752 105.352 186.67 108.479 184.194 114.734C181.719 120.858 180.481 129.783 180.481 141.51C180.481 153.498 181.653 162.619 183.999 168.874C186.474 174.998 191.621 178.06 199.439 178.06C207.257 178.06 212.339 174.998 214.685 168.874C217.16 162.619 218.398 153.498 218.398 141.51ZM273.56 191.546V159.883L333.563 74.2753H375.585V158.319H390.635V191.546H375.585V215H336.886V191.546H273.56ZM339.818 117.47L312.845 158.319H339.818V117.47Z" fill="url(#paint0_linear_490_4341)"/>
    <defs>
        <linearGradient id="paint0_linear_490_4341" x1="0" y1="146.588" x2="399.046" y2="146.588" gradientUnits="userSpaceOnUse">
            <stop stop-color="#F5E703"/>
            <stop offset="0.510135" stop-color="#86C752"/>
            <stop offset="1" stop-color="#05A2AE"/>
        </linearGradient>
    </defs>
</svg>
