<svg width="270" height="270" viewBox="0 0 270 270" fill="none" xmlns="http://www.w3.org/2000/svg">
<g clip-path="url(#clip0_1490_8407)">
<path d="M267.414 241.611C264.072 248.568 257.914 253.744 251.459 257.952C244.404 262.546 236.802 266.237 228.832 268.936C227.74 269.314 226.636 269.665 225.528 270H180.703C180.39 269.66 180.093 269.303 179.812 268.936C176.81 265.08 175.187 260.138 175.776 255.297C176.534 249.079 181.244 243.366 187.344 242.047C193.449 240.722 200.408 244.377 202.264 250.361C203.283 238.829 204.46 226.818 210.57 216.998C216.108 208.11 225.692 201.748 236.077 200.609C242.186 199.971 248.349 201.103 253.835 203.87C254.339 204.125 254.838 204.391 255.326 204.668C258.619 206.54 261.524 209.027 263.887 211.993C270.363 220.216 271.949 232.169 267.414 241.611Z" fill="#DEDEDE"/>
<path d="M254.997 205.397C234.153 222.422 217.681 244.211 206.964 268.936C206.81 269.287 206.656 269.643 206.508 270H204.396C204.545 269.643 204.694 269.287 204.847 268.936C206.89 264.149 209.144 259.446 211.621 254.866C216.892 245.127 223.093 235.924 230.137 227.387C237.177 218.839 245.04 211.008 253.613 204.008C253.681 203.953 253.756 203.906 253.835 203.87C253.984 203.805 254.146 203.775 254.308 203.781C254.471 203.788 254.63 203.831 254.773 203.908C254.916 203.984 255.04 204.093 255.136 204.224C255.232 204.356 255.297 204.508 255.326 204.668C255.341 204.808 255.319 204.949 255.261 205.077C255.203 205.205 255.112 205.316 254.997 205.397Z" fill="white"/>
<path d="M88.6908 156.168C89.2145 155.649 89.6182 155.021 89.8736 154.328C90.1289 153.635 90.2297 152.895 90.1689 152.159C90.108 151.423 89.887 150.709 89.5214 150.068C89.1557 149.427 88.6544 148.874 88.0526 148.448L85.5087 131.629L75.0591 134.927L80.7837 149.933C80.1375 150.994 79.902 152.256 80.1217 153.48C80.3413 154.704 81.001 155.804 81.9757 156.573C82.9503 157.341 84.1722 157.725 85.4099 157.65C86.6476 157.576 87.815 157.048 88.6909 156.168H88.6908Z" fill="#DEDEDE"/>
<path d="M77.9262 148.256L71.4802 118.065C70.8522 115.173 70.9751 112.168 71.8371 109.337C72.6991 106.506 74.2713 103.945 76.4031 101.898C84.6541 93.9244 95.2584 83.8737 98.9214 81.2739C102.359 78.8163 106.519 77.5848 110.737 77.7762L110.825 77.786L116.37 83.0412L104.291 102.983L85.9544 114.505L87.995 144.096L77.9262 148.256Z" fill="#CCDC21"/>
<path d="M100.501 107.229H73.4502C72.2785 107.229 71.3286 108.181 71.3286 109.356C71.3286 110.531 72.2785 111.484 73.4502 111.484H100.501C101.673 111.484 102.622 110.531 102.622 109.356C102.622 108.181 101.673 107.229 100.501 107.229Z" fill="#DEDEDE"/>
<path d="M100.501 153.507H73.4502C72.2785 153.507 71.3286 154.459 71.3286 155.635C71.3286 156.81 72.2785 157.762 73.4502 157.762H100.501C101.673 157.762 102.622 156.81 102.622 155.635C102.622 154.459 101.673 153.507 100.501 153.507Z" fill="#DEDEDE"/>
<path d="M87.2408 269.468C86.9757 269.468 86.7202 269.369 86.5246 269.189C86.329 269.01 86.2076 268.763 86.1841 268.498L72.6609 109.45C72.636 109.169 72.7235 108.89 72.9041 108.674C73.0847 108.457 73.3436 108.322 73.6238 108.297C73.9041 108.272 74.1827 108.359 74.3984 108.541C74.6142 108.722 74.7494 108.981 74.7742 109.262L87.2255 256.21L99.3229 109.265C99.3349 109.126 99.3741 108.99 99.4382 108.866C99.5024 108.742 99.5903 108.632 99.6969 108.542C99.8035 108.452 99.9268 108.384 100.06 108.342C100.192 108.3 100.332 108.284 100.471 108.296C100.61 108.308 100.745 108.348 100.869 108.412C100.992 108.476 101.102 108.565 101.192 108.672C101.281 108.778 101.349 108.902 101.391 109.035C101.433 109.168 101.449 109.309 101.437 109.448L88.2977 268.496C88.2749 268.761 88.1538 269.008 87.9584 269.188C87.763 269.368 87.5074 269.468 87.2421 269.468H87.2408Z" fill="#DEDEDE"/>
<path d="M117.598 71.4097C125.285 71.4097 131.515 65.1608 131.515 57.4524C131.515 49.744 125.285 43.4951 117.598 43.4951C109.912 43.4951 103.681 49.744 103.681 57.4524C103.681 65.1608 109.912 71.4097 117.598 71.4097Z" fill="#DEDEDE"/>
<path d="M76.1213 263.089L69.5029 260.974L74.4898 234.364L84.2588 237.486L76.1213 263.089Z" fill="#DEDEDE"/>
<path d="M75.7532 268.977L54.4463 262.166L54.6223 261.611C55.3 259.487 56.7898 257.72 58.7649 256.697C60.74 255.674 63.0391 255.478 65.1581 256.152L78.4759 260.41L75.7532 268.977Z" fill="#4FAC55"/>
<path d="M124.276 262.951H117.329L114.023 236.079H124.276V262.951Z" fill="#DEDEDE"/>
<path d="M104.197 269.155H125.5V261.227H112.052C109.97 261.229 107.973 262.06 106.5 263.537C105.028 265.014 104.2 267.016 104.197 269.104V269.155Z" fill="#232323"/>
<path d="M124.073 254.231L121.728 253.88C114.617 252.817 114.192 252.754 113.063 252.257C112.486 252.003 112.446 248.164 112.792 226.588C113.046 210.75 113.362 191.039 112.748 180.457C112.723 180.04 112.558 179.643 112.28 179.331C112.002 179.019 111.628 178.809 111.217 178.737C110.806 178.664 110.383 178.733 110.016 178.931C109.649 179.129 109.359 179.445 109.193 179.829C103.902 192.083 95.0244 219.506 89.1502 237.652C87.1069 243.965 85.493 248.95 84.472 251.939C84.2748 252.504 83.8745 252.975 83.3494 253.26C82.8244 253.545 82.2121 253.624 81.6324 253.48C76.7983 252.268 77.1215 251.753 70.2364 249.967C69.6407 249.815 69.1269 249.437 68.8024 248.914C68.478 248.39 68.3681 247.761 68.4958 247.158C69.7411 241.268 92.5307 145.771 94.2751 136.694C94.3341 136.383 94.454 136.087 94.6277 135.823C94.8014 135.559 95.0255 135.332 95.2871 135.155C95.5488 134.979 95.8427 134.856 96.152 134.794C96.4613 134.732 96.7797 134.732 97.089 134.794C102.22 135.83 105.342 136.93 110.412 137.994C115.884 139.142 121.541 140.329 127.06 141.437C127.609 141.547 128.101 141.85 128.449 142.291C129.814 144.02 131.839 144.991 133.983 146.019C135.428 146.712 132.153 146.649 133.412 147.649C138.509 151.695 131.179 233.868 126.75 252.427C126.608 253.008 126.255 253.515 125.76 253.849C125.265 254.182 124.663 254.319 124.073 254.231V254.231Z" fill="#1E484B"/>
<path d="M123.53 69.6654C122.718 66.2078 126.825 58.768 126.012 55.3103C125.462 52.9688 119.972 54.5605 118.691 52.5267C117.409 50.4929 115.263 48.8453 112.865 48.8183C110.108 48.7872 107.395 50.8383 104.783 49.9518C102.142 49.0555 101.298 45.4289 102.466 42.8899C103.633 40.351 106.148 38.7331 108.633 37.4654C112.864 35.3066 117.791 33.7301 122.32 35.1584C125.057 36.0218 127.346 37.8927 129.562 39.7225C131.581 41.3905 133.634 43.0963 135.045 45.3052C137.811 49.6324 137.644 55.4627 135.281 60.0233C132.918 64.5838 128.612 67.9305 123.867 69.8732" fill="#232323"/>
<path d="M89.3572 150.129C90.8593 147.613 93.1399 135.822 95.9522 116.031C97.8669 102.52 99.5351 88.7924 100.363 81.7801C100.427 81.2125 100.634 80.6707 100.964 80.2053C101.295 79.74 101.737 79.3664 102.251 79.1196C102.788 78.8596 103.322 78.6136 103.853 78.3815C110.707 75.3914 117.654 74.4008 124.498 75.4366C131.332 76.4893 137.743 79.4187 143.019 83.9003L143.082 83.9592L143.098 84.0434C143.127 84.1992 146.002 99.7343 140.114 110.23C134.307 120.586 134.239 148.011 134.239 148.287V148.64L133.901 148.543C124.867 145.954 89.9706 150.483 89.619 150.53L89.0757 150.601L89.3572 150.129Z" fill="url(#paint0_linear_1490_8407)"/>
<path d="M141.872 114.144H114.822C113.65 114.144 112.7 115.096 112.7 116.271C112.7 117.446 113.65 118.399 114.822 118.399H141.872C143.044 118.399 143.994 117.446 143.994 116.271C143.994 115.096 143.044 114.144 141.872 114.144Z" fill="#DEDEDE"/>
<path d="M141.872 160.422H114.822C113.65 160.422 112.7 161.374 112.7 162.55C112.7 163.725 113.65 164.677 114.822 164.677H141.872C143.044 164.677 143.994 163.725 143.994 162.55C143.994 161.374 143.044 160.422 141.872 160.422Z" fill="#DEDEDE"/>
<path d="M128.612 270C128.347 270 128.092 269.9 127.896 269.721C127.701 269.541 127.579 269.295 127.556 269.03L114.032 116.365C114.02 116.226 114.035 116.086 114.077 115.953C114.119 115.819 114.186 115.696 114.276 115.589C114.365 115.481 114.475 115.393 114.598 115.328C114.722 115.264 114.857 115.224 114.995 115.212C115.134 115.199 115.274 115.215 115.407 115.256C115.54 115.298 115.663 115.366 115.77 115.456C115.877 115.545 115.965 115.655 116.029 115.779C116.094 115.903 116.133 116.038 116.146 116.177L128.597 256.741L140.694 116.18C140.719 115.899 140.853 115.639 141.068 115.457C141.284 115.276 141.562 115.187 141.843 115.211C142.123 115.236 142.382 115.371 142.563 115.587C142.744 115.803 142.832 116.082 142.808 116.363L129.669 269.028C129.646 269.293 129.525 269.54 129.33 269.72C129.135 269.9 128.879 270 128.614 270H128.612Z" fill="#DEDEDE"/>
<path d="M119.878 161.096C119.72 160.375 119.721 159.627 119.882 158.907C120.043 158.186 120.36 157.509 120.809 156.925C121.259 156.34 121.832 155.861 122.486 155.522C123.14 155.183 123.861 154.992 124.596 154.963L135.845 142.229L142.83 150.693L129.894 160.17C129.862 161.413 129.376 162.601 128.528 163.509C127.681 164.417 126.531 164.981 125.296 165.095C124.061 165.209 122.828 164.865 121.829 164.128C120.831 163.391 120.136 162.312 119.878 161.096V161.096Z" fill="#DEDEDE"/>
<path d="M126.427 152.233L144.173 128.504L135.022 108.839L135.687 85.5156L143.189 84.1255L143.268 84.1655C146.913 86.3032 149.738 89.6039 151.292 93.5405C152.959 97.7191 156.415 111.935 159.022 123.126C159.702 126.006 159.634 129.013 158.824 131.859C158.014 134.705 156.489 137.295 154.395 139.38L132.626 161.212L126.427 152.233Z" fill="#2CAE93"/>
<path d="M52.0382 263.401L76.3164 269.264C76.7873 269.389 77.2871 269.344 77.7286 269.137C78.1701 268.931 78.5253 268.575 78.7322 268.133L99.5876 212.523C99.6796 212.31 99.7272 212.079 99.7275 211.846C99.7279 211.614 99.6808 211.383 99.5894 211.169C99.4842 210.929 99.3315 210.713 99.1405 210.533C98.9495 210.354 98.7243 210.215 98.4783 210.126L80.2247 203.135C79.9362 203.024 79.6277 202.976 79.3192 202.993C79.0108 203.01 78.7094 203.092 78.4349 203.234C78.1963 203.352 77.9857 203.52 77.8173 203.727C77.6489 203.934 77.5267 204.174 77.4587 204.432L77.4582 204.435L64.5747 253.446L64.3833 253.458C64.3093 253.463 56.9235 253.967 53.6022 257.965C52.9824 258.714 52.5235 259.584 52.2543 260.52C51.9852 261.455 51.9116 262.436 52.0382 263.401Z" fill="#DEDEDE"/>
<path d="M263.08 269.468C263.08 269.538 263.067 269.607 263.04 269.672C263.014 269.736 262.975 269.795 262.925 269.845C262.876 269.894 262.818 269.933 262.753 269.96C262.689 269.987 262.62 270 262.55 270H0.530404C0.389732 270 0.254829 269.944 0.155359 269.844C0.0558893 269.744 0 269.609 0 269.468C0 269.327 0.0558893 269.192 0.155359 269.092C0.254829 268.992 0.389732 268.936 0.530404 268.936H262.55C262.62 268.936 262.689 268.949 262.753 268.976C262.818 269.003 262.876 269.042 262.925 269.091C262.975 269.141 263.014 269.199 263.04 269.264C263.067 269.329 263.08 269.398 263.08 269.468Z" fill="#C0C0C0"/>
<path d="M69.621 232.228L69.5093 233.286L91.6439 235.637L91.7556 234.579L69.621 232.228Z" fill="#C0C0C0"/>
<path d="M67.6912 240.993L67.2559 241.963L85.0683 250.001L85.5036 249.03L67.6912 240.993Z" fill="#C0C0C0"/>
<path d="M94.0853 227.127L73.0903 220.154L73.5258 219.184L94.5208 226.157L94.0853 227.127Z" fill="#C0C0C0"/>
<path d="M96.2069 222.34L75.2119 212.175L75.6474 211.205L96.6424 221.37L96.2069 222.34Z" fill="#C0C0C0"/>
<path d="M65.8398 249.323L65.1509 250.131L80.2882 263.1L80.9772 262.291L65.8398 249.323Z" fill="#C0C0C0"/>
<path d="M61.5417 253.622L60.5757 254.061L66.6537 267.503L67.6198 267.063L61.5417 253.622Z" fill="#C0C0C0"/>
<path d="M203.855 254.257V11.7999C203.855 8.5259 203.917 5.24487 203.855 1.97122C203.852 1.82809 203.855 1.68467 203.855 1.54151C203.855 -0.512136 200.673 -0.515535 200.673 1.54151V243.999C200.673 247.273 200.611 250.554 200.673 253.827C200.675 253.97 200.673 254.114 200.673 254.257C200.673 256.311 203.855 256.314 203.855 254.257V254.257Z" fill="#DEDEDE"/>
<path d="M221.456 69.3064H183.267C182.353 69.3053 181.477 68.9407 180.83 68.2925C180.184 67.6443 179.82 66.7655 179.819 65.8488V19.3047C179.82 18.3881 180.184 17.5092 180.83 16.861C181.477 16.2128 182.353 15.8482 183.267 15.8472H221.456C222.37 15.8482 223.246 16.2128 223.893 16.861C224.539 17.5092 224.903 18.3881 224.904 19.3047V65.8488C224.903 66.7655 224.539 67.6443 223.893 68.2925C223.246 68.9407 222.37 69.3053 221.456 69.3064Z" fill="#DEDEDE"/>
</g>
<defs>
<linearGradient id="paint0_linear_1490_8407" x1="89.0757" y1="112.82" x2="143.825" y2="112.82" gradientUnits="userSpaceOnUse">
<stop stop-color="#F5E703"/>
<stop offset="0.510135" stop-color="#86C752"/>
<stop offset="1" stop-color="#05A2AE"/>
</linearGradient>
<clipPath id="clip0_1490_8407">
<rect width="270" height="270" fill="white"/>
</clipPath>
</defs>
</svg>
