<svg width="483" height="263" viewBox="0 0 483 263" fill="none" xmlns="http://www.w3.org/2000/svg">
<path d="M419.276 261.276C419.322 261.138 423.797 247.319 415.876 234.988L415.067 235.505C422.735 247.441 418.409 260.839 418.364 260.973L419.276 261.276Z" fill="#DEDEDE"/>
<path d="M410.212 236.761C410.383 237.568 410.711 238.335 411.179 239.015C411.646 239.696 412.243 240.279 412.936 240.73C413.629 241.18 414.404 241.49 415.217 241.642C416.031 241.794 416.866 241.784 417.675 241.614C418.484 241.443 419.252 241.116 419.934 240.649C420.617 240.183 421.201 239.587 421.652 238.895C422.104 238.204 422.414 237.43 422.566 236.619C422.718 235.808 422.709 234.974 422.538 234.167C421.82 230.77 415.735 222.317 412.331 223.033C408.927 223.749 409.494 233.364 410.212 236.761Z" fill="#DEDEDE"/>
<path d="M411.36 252.647C414.398 255.923 419.832 255.834 419.832 255.834C419.832 255.834 420.341 250.434 417.304 247.158C414.266 243.883 408.831 243.971 408.831 243.971C408.831 243.971 408.322 249.371 411.36 252.647Z" fill="#DEDEDE"/>
<path d="M457.402 262.234C457.511 261.908 468.073 229.297 449.38 200.196L447.471 201.417C465.566 229.587 455.356 261.204 455.251 261.52L457.402 262.234Z" fill="#DEDEDE"/>
<path d="M436.012 204.381C436.827 208.229 439.139 211.598 442.442 213.745C445.745 215.892 449.766 216.642 453.623 215.83C457.48 215.019 460.856 212.712 463.008 209.416C465.161 206.121 465.913 202.108 465.101 198.259C463.407 190.244 449.045 170.294 441.013 171.985C432.98 173.675 434.318 196.365 436.012 204.381Z" fill="#DEDEDE"/>
<path d="M438.721 241.871C445.89 249.602 458.715 249.392 458.715 249.392C458.715 249.392 459.917 236.649 452.748 228.918C445.579 221.188 432.754 221.398 432.754 221.398C432.754 221.398 431.552 234.141 438.721 241.871Z" fill="#DEDEDE"/>
<path d="M278.636 259.779L271.627 256.834L266.819 221.771H202.789L197.577 256.69L191.307 259.819C191.007 259.969 190.766 260.215 190.624 260.518C190.482 260.822 190.446 261.164 190.523 261.49C190.6 261.815 190.785 262.106 191.048 262.313C191.311 262.521 191.637 262.634 191.973 262.634H278.059C278.402 262.634 278.736 262.516 279.002 262.298C279.268 262.081 279.45 261.779 279.518 261.442C279.586 261.106 279.536 260.757 279.375 260.453C279.214 260.15 278.953 259.912 278.636 259.779Z" fill="#E6E6E6"/>
<path d="M392.422 226.436H77.8894C76.2391 226.432 74.6577 225.775 73.4921 224.61C72.3265 223.444 71.6719 221.864 71.6719 220.217V175.957H398.64V220.217C398.64 221.864 397.985 223.444 396.82 224.61C395.654 225.775 394.073 226.432 392.422 226.436Z" fill="#CCCCCC"/>
<path d="M398.969 196.876H71.3848V7.49611C71.3871 5.50868 72.1793 3.60331 73.5876 2.198C74.9959 0.792699 76.9053 0.00222764 78.8969 0H391.456C393.448 0.00222633 395.357 0.792694 396.766 2.198C398.174 3.6033 398.966 5.50867 398.969 7.49611V196.876Z" fill="#575756"/>
<path d="M379.405 13.7446H90.949C89.4137 13.7465 87.9419 14.3563 86.8567 15.4401C85.7716 16.5239 85.1618 17.9931 85.1611 19.5252V177.351C85.1618 178.883 85.7716 180.352 86.8567 181.436C87.9419 182.52 89.4137 183.129 90.949 183.131H379.405C380.94 183.129 382.412 182.518 383.497 181.435C384.582 180.351 385.192 178.883 385.193 177.351V19.5252C385.192 17.9934 384.582 16.5246 383.497 15.441C382.412 14.3574 380.94 13.7473 379.405 13.7446Z" fill="white"/>
<path d="M142.08 13.7446V183.131H90.949C89.4137 183.129 87.9419 182.52 86.8567 181.436C85.7716 180.352 85.1618 178.883 85.1611 177.351V19.5252C85.1618 17.9931 85.7716 16.5239 86.8567 15.4401C87.9419 14.3563 89.4137 13.7465 90.949 13.7446H142.08Z" fill="#F0F0F0"/>
<path d="M99.8975 99.3134C99.3219 99.1827 98.7246 99.1794 98.1477 99.3039C97.5707 99.4285 97.0282 99.6777 96.5582 100.034C96.0882 100.391 95.7023 100.845 95.4275 101.367C95.1528 101.888 94.9959 102.463 94.968 103.052L81.2051 107.101L86.9026 111.9L99.0986 107.319C100.092 107.301 101.045 106.919 101.775 106.246C102.505 105.574 102.963 104.657 103.062 103.671C103.16 102.684 102.892 101.695 102.309 100.892C101.726 100.089 100.868 99.5273 99.8975 99.3134H99.8975Z" fill="#DEDEDE"/>
<path d="M44.2886 129.786C42.928 129.784 41.6123 129.3 40.576 128.42C39.5397 127.541 38.8502 126.322 38.6305 124.982C38.4108 123.642 38.6752 122.268 39.3765 121.104C40.0778 119.941 41.1704 119.064 42.4595 118.629L70.3493 109.235L92.1045 101.326L94.7742 110.651L75.5688 123.28L45.489 129.66C45.0944 129.744 44.6921 129.786 44.2886 129.786Z" fill="#EBE50B"/>
<path d="M61.7417 258.253H65.6573L67.5205 243.181H61.7407L61.7417 258.253Z" fill="#DEDEDE"/>
<path d="M60.7427 256.978L68.4544 256.977H68.4547C69.7581 256.977 71.0081 257.494 71.9297 258.414C72.8514 259.333 73.3692 260.581 73.3693 261.881V262.041L60.7429 262.041L60.7427 256.978Z" fill="#4EAC55"/>
<path d="M31.7173 258.253H35.6329L37.4961 243.181H31.7168L31.7173 258.253Z" fill="#DEDEDE"/>
<path d="M30.7188 256.978L38.4305 256.977H38.4308C39.7342 256.977 40.9842 257.494 41.9058 258.414C42.8275 259.333 43.3453 260.581 43.3454 261.881V262.041L30.719 262.041L30.7188 256.978Z" fill="#4EAC55"/>
<path d="M31.6787 167.846C29.8867 172.012 29.4945 176.645 30.5608 181.051L29.4429 255.817H38.043L42.8579 214.7L50.8431 187.608L59.4671 208.644V252.488L67.7717 251.992L72.2434 205.457L67.1329 172.309L31.6787 167.846Z" fill="#1E484B"/>
<path d="M63.14 109.677L55.7937 107.446L53.8772 103.621H44.4409L42.0592 107.765C42.0592 107.765 32.477 111.271 32.1576 128.164C31.8382 145.057 30.5605 172.149 30.5605 172.149L68.3436 177.524L63.14 109.677Z" fill="url(#paint0_linear_490_4635)"/>
<path d="M73.9876 174.499C74.2354 173.965 74.3628 173.382 74.3607 172.793C74.3586 172.204 74.2271 171.623 73.9755 171.09C73.7238 170.557 73.3582 170.086 72.9043 169.709C72.4504 169.333 71.9192 169.06 71.3483 168.911L70.2408 154.635L64.3516 159.198L66.3061 172.055C66.1179 173.029 66.2942 174.038 66.8015 174.89C67.3089 175.743 68.1121 176.381 69.0589 176.682C70.0058 176.983 71.0305 176.927 71.9389 176.525C72.8473 176.123 73.5762 175.402 73.9876 174.499H73.9876Z" fill="#DEDEDE"/>
<path d="M63.9393 167.142L55.5537 145.77V115.082C55.5537 113.621 56.1136 112.214 57.1189 111.151C58.1241 110.088 59.4985 109.448 60.9608 109.364C62.4231 109.279 63.8625 109.755 64.9844 110.695C66.1063 111.634 66.8258 112.967 66.9955 114.418L70.4059 143.595L73.635 166.474L63.9393 167.142Z" fill="#5ABB72"/>
<path d="M50.9696 98.6595C56.1776 98.6595 60.3996 94.4464 60.3996 89.2493C60.3996 84.0522 56.1776 79.8391 50.9696 79.8391C45.7615 79.8391 41.5396 84.0522 41.5396 89.2493C41.5396 94.4464 45.7615 98.6595 50.9696 98.6595Z" fill="#DEDEDE"/>
<path d="M51.587 86.3887C51.1457 86.9539 50.5409 87.4641 50.4438 88.174C50.3718 88.6999 50.6021 89.2198 50.624 89.7502C50.6258 90.2854 50.4229 90.8013 50.0568 91.1925C49.6907 91.5837 49.1889 91.8209 48.6536 91.8558C48.2808 91.3876 47.742 91.0802 47.1486 90.9969C46.8533 90.9636 46.555 91.0256 46.2976 91.174C46.0403 91.3224 45.8374 91.5492 45.7188 91.8212C45.4388 92.6106 46.087 93.4125 46.1912 94.2434C46.2051 94.8581 46.1054 95.47 45.8973 96.0487C45.6583 97.002 45.5945 98.0107 45.1753 98.9C44.7561 99.7892 43.8239 100.554 42.859 100.358C42.0477 100.192 41.4986 99.4081 41.2717 98.6134C41.0448 97.8186 41.055 96.976 40.8908 96.166C40.3572 93.5342 38.087 91.5843 37.1964 89.0505C36.0551 85.8039 37.4261 82.0902 39.789 79.5846C40.7443 78.4868 41.9913 77.6811 43.386 77.2606C44.8585 76.8864 46.4153 77.1554 47.9262 76.9954C49.542 76.8243 51.0608 76.1691 52.6312 75.7526C54.2016 75.3362 55.9556 75.1793 57.383 75.9541C58.3786 76.4944 59.0996 77.4261 60.0272 78.0758C61.0906 78.8151 62.3799 79.1595 63.6712 79.0491L62.1292 79.7218C62.7194 80.2623 63.4323 80.6519 64.2065 80.8571C63.5764 81.3555 62.7969 81.6286 61.9928 81.6326C62.1605 81.9341 62.3883 82.1982 62.6623 82.4084C62.9363 82.6186 63.2505 82.7706 63.5857 82.8548C62.4148 83.4033 61.1717 83.9653 59.8842 83.8416C59.2535 83.781 58.6507 83.5573 58.0277 83.4422C56.6998 83.1968 55.3361 83.4511 54.0098 83.705C53.3133 83.8383 52.4585 83.9663 52.1068 84.6346C51.8139 85.1911 52.0379 85.8111 51.587 86.3887Z" fill="#575756"/>
<path d="M113.621 113.45C121.929 113.45 128.664 106.729 128.664 98.4381C128.664 90.147 121.929 83.4258 113.621 83.4258C105.312 83.4258 98.5767 90.147 98.5767 98.4381C98.5767 106.729 105.312 113.45 113.621 113.45Z" fill="#489FAF"/>
<path d="M122.646 98.4383H114.523V90.3315H112.718V98.4383H104.594V100.24H112.718V108.346H114.523V100.24H122.646V98.4383Z" fill="white"/>
<path d="M241.728 33.5564C241.264 33.5569 240.819 33.741 240.491 34.0684C240.163 34.3957 239.979 34.8396 239.978 35.3026V64.5401C239.979 65.003 240.163 65.4469 240.491 65.7743C240.819 66.1017 241.264 66.2859 241.728 66.2864H359.842C360.306 66.2859 360.751 66.1017 361.079 65.7743C361.407 65.4469 361.591 65.003 361.592 64.5401V35.3026C361.591 34.8396 361.407 34.3957 361.079 34.0684C360.751 33.741 360.306 33.5569 359.842 33.5564H241.728Z" fill="white"/>
<path d="M241.728 33.5564C241.264 33.5569 240.819 33.741 240.491 34.0684C240.163 34.3957 239.979 34.8396 239.978 35.3026V64.5401C239.979 65.003 240.163 65.4469 240.491 65.7743C240.819 66.1017 241.264 66.2859 241.728 66.2864H359.842C360.306 66.2859 360.751 66.1017 361.079 65.7743C361.407 65.4469 361.591 65.003 361.592 64.5401V35.3026C361.591 34.8396 361.407 34.3957 361.079 34.0684C360.751 33.741 360.306 33.5569 359.842 33.5564H241.728Z" fill="#E6E6E6"/>
<path d="M241.946 64.3217H359.623V35.5208H241.946V64.3217Z" fill="white"/>
<path d="M255.326 43.8098C254.92 43.8098 254.531 43.9708 254.243 44.2573C253.956 44.5439 253.795 44.9325 253.795 45.3377C253.795 45.7429 253.956 46.1316 254.243 46.4181C254.531 46.7046 254.92 46.8656 255.326 46.8656H346.24C346.441 46.8657 346.64 46.8263 346.826 46.7496C347.011 46.6728 347.18 46.5604 347.322 46.4186C347.465 46.2767 347.578 46.1084 347.655 45.923C347.732 45.7377 347.771 45.539 347.771 45.3384C347.771 45.1377 347.732 44.939 347.655 44.7536C347.578 44.5682 347.465 44.3997 347.323 44.2578C347.181 44.1158 347.012 44.0032 346.827 43.9264C346.641 43.8495 346.442 43.8099 346.241 43.8098H255.326Z" fill="#E4E4E4"/>
<path d="M255.326 52.9771C254.92 52.9778 254.531 53.139 254.245 53.4255C253.958 53.712 253.797 54.1002 253.797 54.5049C253.797 54.9097 253.958 55.2979 254.245 55.5844C254.531 55.8708 254.92 56.0321 255.326 56.0328H346.239C346.645 56.0337 347.035 55.8736 347.323 55.5877C347.611 55.3018 347.773 54.9136 347.774 54.5083C347.775 54.1031 347.614 53.7141 347.328 53.427C347.041 53.1398 346.652 52.978 346.246 52.9771H255.326Z" fill="#E4E4E4"/>
<path d="M159.592 83.166C159.128 83.1665 158.683 83.3506 158.355 83.678C158.027 84.0054 157.842 84.4492 157.842 84.9122V114.15C157.842 114.613 158.027 115.057 158.355 115.384C158.683 115.711 159.128 115.896 159.592 115.896H277.706C278.17 115.896 278.614 115.711 278.942 115.384C279.27 115.057 279.455 114.613 279.455 114.15V84.9122C279.455 84.4492 279.27 84.0054 278.942 83.678C278.614 83.3506 278.17 83.1665 277.706 83.166H159.592Z" fill="white"/>
<path d="M159.592 83.166C159.128 83.1665 158.683 83.3506 158.355 83.678C158.027 84.0054 157.842 84.4492 157.842 84.9122V114.15C157.842 114.613 158.027 115.057 158.355 115.384C158.683 115.711 159.128 115.896 159.592 115.896H277.706C278.17 115.896 278.614 115.711 278.942 115.384C279.27 115.057 279.455 114.613 279.455 114.15V84.9122C279.455 84.4492 279.27 84.0054 278.942 83.678C278.614 83.3506 278.17 83.1665 277.706 83.166H159.592Z" fill="#E6E6E6"/>
<path d="M159.811 113.931H277.487V85.1304H159.811V113.931Z" fill="white"/>
<path d="M173.19 93.4194C172.784 93.4194 172.394 93.5804 172.107 93.8669C171.82 94.1535 171.659 94.5421 171.659 94.9473C171.659 95.3525 171.82 95.7412 172.107 96.0277C172.394 96.3142 172.784 96.4752 173.19 96.4752H264.103C264.304 96.4753 264.504 96.4359 264.689 96.3592C264.875 96.2825 265.044 96.17 265.186 96.0282C265.328 95.8864 265.441 95.718 265.518 95.5326C265.595 95.3473 265.635 95.1486 265.635 94.948C265.635 94.7473 265.596 94.5486 265.519 94.3632C265.442 94.1778 265.329 94.0093 265.187 93.8674C265.045 93.7255 264.876 93.6129 264.691 93.536C264.505 93.4591 264.306 93.4195 264.105 93.4194H173.19Z" fill="#E4E4E4"/>
<path d="M173.19 102.587C172.784 102.587 172.396 102.749 172.109 103.035C171.823 103.322 171.662 103.71 171.662 104.115C171.662 104.519 171.823 104.908 172.109 105.194C172.396 105.48 172.784 105.642 173.19 105.642H264.104C264.51 105.643 264.899 105.483 265.187 105.197C265.475 104.911 265.637 104.523 265.638 104.118C265.639 103.713 265.479 103.324 265.192 103.037C264.906 102.749 264.516 102.588 264.11 102.587H173.19Z" fill="#E4E4E4"/>
<path d="M303.564 161.637C304.09 161.579 304.597 161.407 305.049 161.132C305.501 160.858 305.887 160.488 306.181 160.048C306.474 159.608 306.667 159.11 306.746 158.588C306.826 158.066 306.79 157.533 306.64 157.026L317.108 149.565L310.87 147.168L301.886 154.621C301.049 154.928 300.355 155.53 299.934 156.313C299.513 157.097 299.395 158.008 299.602 158.872C299.809 159.737 300.326 160.496 301.057 161.006C301.787 161.515 302.679 161.74 303.564 161.637Z" fill="#DEDEDE"/>
<path d="M309.375 156.869L305.903 150.951L305.977 150.867L319.988 134.949L330.866 116.437L340.313 117.638L340.452 120.487L340.424 120.53L325.415 143.043L325.4 143.057L309.375 156.869Z" fill="#A6DDE2"/>
<path d="M355.667 256.874L350.326 256.873L347.784 236.311L355.668 236.312L355.667 256.874Z" fill="#DEDEDE"/>
<path d="M357.03 262.041L339.804 262.041V261.823C339.804 260.049 340.511 258.347 341.768 257.093C343.025 255.838 344.731 255.133 346.509 255.133H346.509L357.03 255.133L357.03 262.041Z" fill="#1E484B"/>
<path d="M309.691 256.699L304.495 255.461L306.808 234.872L314.477 236.699L309.691 256.699Z" fill="#DEDEDE"/>
<path d="M309.813 262.041L293.059 258.049L293.109 257.838C293.522 256.112 294.605 254.62 296.12 253.691C297.635 252.762 299.458 252.472 301.187 252.884L301.188 252.884L311.421 255.322L309.813 262.041Z" fill="#1E484B"/>
<path d="M330.453 106.889V97.9155C330.453 94.7264 331.722 91.668 333.982 89.413C336.242 87.158 339.307 85.8911 342.502 85.8911C345.698 85.8911 348.763 87.158 351.023 89.413C353.282 91.668 354.552 94.7264 354.552 97.9155V106.889C354.551 107.317 354.381 107.728 354.077 108.03C353.774 108.333 353.362 108.504 352.933 108.504H332.071C331.642 108.504 331.231 108.333 330.927 108.03C330.624 107.728 330.453 107.317 330.453 106.889Z" fill="#77BD7D"/>
<path d="M339.529 108.368C344.408 108.368 348.363 104.421 348.363 99.5519C348.363 94.6831 344.408 90.7361 339.529 90.7361C334.65 90.7361 330.694 94.6831 330.694 99.5519C330.694 104.421 334.65 108.368 339.529 108.368Z" fill="#DEDEDE"/>
<path d="M327.602 98.6334C327.605 96.1116 328.61 93.6938 330.397 91.9107C332.184 90.1275 334.607 89.1244 337.134 89.1216H338.932C341.459 89.1244 343.882 90.1275 345.669 91.9107C347.456 93.6939 348.461 96.1116 348.464 98.6334V98.8129H344.663L343.367 95.1905L343.108 98.8129H341.144L340.49 96.9852L340.359 98.8129H327.602V98.6334Z" fill="#77BD7D"/>
<path d="M344.681 146.228L322.188 145.374L320.93 130.689C319.96 128.001 319.945 125.693 320.884 123.829C321.691 122.299 323.048 121.129 324.682 120.553L329.604 114.621C330.237 113.858 331.033 113.246 331.932 112.827C332.832 112.409 333.813 112.195 334.806 112.202L347.594 112.289C347.902 112.104 349.772 111.156 353.459 112.751C357.459 114.481 356.53 120.49 356.52 120.551L356.511 120.607L356.467 120.644L347.961 127.793L344.681 146.228Z" fill="#A6DDE2"/>
<path d="M322.367 143.649L311.727 163.007L303.661 251.076L312.775 253.853L328.908 184.961L347.631 251.899L358.556 252.171L351.117 174.925L344.616 145.017L322.367 143.649Z" fill="#1E484B"/>
<path d="M253.506 129.3C253.064 129.158 252.584 129.196 252.171 129.407C251.758 129.617 251.445 129.983 251.301 130.423L242.266 158.235C242.124 158.676 242.162 159.155 242.373 159.567C242.584 159.98 242.95 160.292 243.391 160.435L355.749 196.781C356.191 196.924 356.671 196.885 357.084 196.675C357.497 196.464 357.81 196.099 357.953 195.659L366.988 167.846C367.131 167.405 367.093 166.926 366.882 166.514C366.671 166.102 366.305 165.79 365.863 165.646L253.506 129.3Z" fill="white"/>
<path d="M253.506 129.3C253.064 129.158 252.584 129.196 252.171 129.407C251.758 129.617 251.445 129.983 251.301 130.423L242.266 158.235C242.124 158.676 242.162 159.155 242.373 159.567C242.584 159.98 242.95 160.292 243.391 160.435L355.749 196.781C356.191 196.924 356.671 196.885 357.084 196.675C357.497 196.464 357.81 196.099 357.953 195.659L366.988 167.846C367.131 167.405 367.093 166.926 366.882 166.514C366.671 166.102 366.305 165.79 365.863 165.646L253.506 129.3Z" fill="#E6E6E6"/>
<path d="M244.207 158.633L356.148 194.845L365.048 167.448L253.107 131.236L244.207 158.633Z" fill="white"/>
<path d="M263.273 143.238C262.886 143.114 262.466 143.147 262.105 143.331C261.743 143.515 261.47 143.835 261.345 144.221C261.219 144.606 261.253 145.025 261.437 145.386C261.622 145.747 261.942 146.02 262.328 146.145L348.811 174.121C349.003 174.183 349.204 174.207 349.405 174.192C349.606 174.176 349.801 174.121 349.98 174.03C350.16 173.939 350.319 173.814 350.45 173.661C350.581 173.508 350.68 173.331 350.742 173.14C350.804 172.949 350.828 172.748 350.812 172.548C350.796 172.348 350.741 172.153 350.649 171.974C350.558 171.795 350.432 171.636 350.279 171.506C350.126 171.375 349.948 171.277 349.757 171.215L349.756 171.214L263.273 143.238Z" fill="#489FAF"/>
<path d="M260.44 151.959C260.054 151.835 259.634 151.869 259.273 152.053C258.912 152.237 258.639 152.557 258.514 152.942C258.389 153.327 258.422 153.746 258.606 154.106C258.79 154.467 259.11 154.74 259.495 154.866L345.978 182.842C346.364 182.967 346.785 182.935 347.147 182.752C347.509 182.568 347.783 182.249 347.909 181.864C348.035 181.478 348.003 181.059 347.819 180.698C347.635 180.336 347.315 180.063 346.929 179.937L346.923 179.935L260.44 151.959Z" fill="#489FAF"/>
<path d="M350.793 174.988C351.187 174.635 351.499 174.2 351.706 173.715C351.913 173.229 352.011 172.703 351.993 172.176C351.975 171.648 351.841 171.13 351.601 170.66C351.36 170.189 351.02 169.777 350.603 169.452L354.756 157.303L348.286 158.98L345.334 170.26C344.833 170.996 344.62 171.889 344.736 172.771C344.851 173.652 345.286 174.461 345.959 175.044C346.632 175.627 347.496 175.943 348.387 175.932C349.278 175.922 350.134 175.586 350.793 174.988V174.988Z" fill="#DEDEDE"/>
<path d="M352.648 167.615L346.371 164.823L348.48 143.629L346.517 122.258L354.897 117.744L356.674 119.979L356.676 120.03L357.617 147.054L357.612 147.074L352.648 167.615Z" fill="#A6DDE2"/>
<defs>
<linearGradient id="paint0_linear_490_4635" x1="30.5605" y1="140.573" x2="68.3436" y2="140.573" gradientUnits="userSpaceOnUse">
<stop stop-color="#F5E703"/>
<stop offset="0.510135" stop-color="#86C752"/>
<stop offset="1" stop-color="#05A2AE"/>
</linearGradient>
</defs>
</svg>
