<svg width="40" height="40" viewBox="0 0 40 40" fill="none" xmlns="http://www.w3.org/2000/svg">
<path d="M15.5548 10.321C15.8283 9.60305 16.2044 8.94208 16.7628 8.40647C18.9964 6.22983 22.6887 6.77684 24.2044 9.51188C25.344 11.586 26.552 13.6144 27.7258 15.6657C29.6859 19.0731 31.6688 22.4805 33.6061 25.8993C35.2358 28.7597 33.4694 32.3723 30.2329 32.8623C28.25 33.1586 26.3924 32.2469 25.3668 30.4691C23.646 27.472 21.9138 24.4748 20.193 21.4891C20.1588 21.4207 20.1132 21.3637 20.0677 21.3068C19.8853 21.1586 19.8056 20.9421 19.6916 20.7483C18.9281 19.4036 18.1417 18.0703 17.3782 16.737C16.8882 15.8709 16.3754 15.0162 15.8853 14.1501C15.4409 13.3751 15.2358 12.5318 15.2585 11.6429C15.2927 11.1871 15.3497 10.7313 15.5548 10.321Z" fill="#3C8BD9"/>
<path d="M15.5555 10.321C15.4529 10.7312 15.3617 11.1415 15.3389 11.5745C15.3047 12.5318 15.5441 13.4207 16.0227 14.2526C17.2763 16.4065 18.5298 18.5717 19.772 20.7369C19.8859 20.9307 19.9771 21.1244 20.0911 21.3067C19.4073 22.4919 18.7235 23.6657 18.0284 24.8509C17.0711 26.5033 16.1139 28.1671 15.1452 29.8196C15.0996 29.8196 15.0882 29.7968 15.0768 29.7626C15.0654 29.6714 15.0996 29.5916 15.1224 29.5005C15.5896 27.7911 15.2022 26.2754 14.0284 24.9763C13.3104 24.1899 12.3988 23.7455 11.3503 23.5973C9.98281 23.4036 8.77483 23.7569 7.69221 24.6116C7.49848 24.7597 7.37312 24.9763 7.1452 25.0902C7.09962 25.0902 7.07683 25.0674 7.06543 25.0332C7.61244 24.0874 8.14805 23.1415 8.69506 22.1956C10.9515 18.2754 13.2079 14.3552 15.4757 10.4463C15.4985 10.4008 15.5327 10.3666 15.5555 10.321Z" fill="#FABC04"/>
<path d="M7.11071 25.0674C7.32724 24.8737 7.53237 24.6686 7.76029 24.4862C10.5295 22.2982 14.6891 23.8822 15.293 27.3466C15.4412 28.1785 15.3614 28.9763 15.1107 29.774C15.0993 29.8424 15.0879 29.8993 15.0651 29.9677C14.9626 30.1501 14.8714 30.3438 14.7574 30.5261C13.7432 32.2013 12.2503 33.0332 10.2902 32.9079C8.04519 32.7483 6.27881 31.0617 5.97111 28.8281C5.82296 27.7455 6.03949 26.7312 6.59789 25.7968C6.71185 25.5916 6.84861 25.4093 6.97396 25.2042C7.03094 25.1586 7.00815 25.0674 7.11071 25.0674Z" fill="#34A852"/>
</svg>
