<svg width="40" height="40" viewBox="0 0 40 40" fill="none" xmlns="http://www.w3.org/2000/svg">
<path d="M15.5548 10.2071C15.8283 9.48916 16.2044 8.82819 16.7628 8.29258C18.9964 6.11594 22.6887 6.66295 24.2044 9.39799C25.344 11.4721 26.552 13.5006 27.7258 15.5518C29.6859 18.9592 31.6688 22.3667 33.6061 25.7855C35.2358 28.6459 33.4694 32.2584 30.2329 32.7484C28.25 33.0447 26.3924 32.133 25.3668 30.3553C23.646 27.3581 21.9138 24.361 20.193 21.3752C20.1588 21.3068 20.1132 21.2498 20.0677 21.1929C19.8853 21.0447 19.8056 20.8282 19.6916 20.6345C18.9281 19.2897 18.1417 17.9564 17.3782 16.6231C16.8882 15.757 16.3754 14.9023 15.8853 14.0362C15.4409 13.2612 15.2358 12.4179 15.2585 11.529C15.2927 11.0732 15.3497 10.6174 15.5548 10.2071Z" fill="#2E2F32"/>
<path d="M15.5555 10.2071C15.4529 10.6173 15.3617 11.0276 15.3389 11.4607C15.3047 12.4179 15.5441 13.3068 16.0227 14.1387C17.2763 16.2926 18.5298 18.4578 19.772 20.623C19.8859 20.8168 19.9771 21.0105 20.0911 21.1928C19.4073 22.378 18.7235 23.5518 18.0284 24.737C17.0711 26.3894 16.1139 28.0532 15.1452 29.7057C15.0996 29.7057 15.0882 29.6829 15.0768 29.6487C15.0654 29.5575 15.0996 29.4777 15.1224 29.3866C15.5896 27.6772 15.2022 26.1615 14.0284 24.8624C13.3104 24.076 12.3988 23.6316 11.3503 23.4834C9.98281 23.2897 8.77483 23.643 7.69221 24.4977C7.49848 24.6458 7.37312 24.8624 7.1452 24.9763C7.09962 24.9763 7.07683 24.9535 7.06543 24.9193C7.61244 23.9735 8.14805 23.0276 8.69506 22.0817C10.9515 18.1615 13.2079 14.2413 15.4757 10.3324C15.4985 10.2869 15.5327 10.2527 15.5555 10.2071Z" fill="#646569"/>
<path d="M7.11071 24.9535C7.32724 24.7598 7.53237 24.5547 7.76029 24.3723C10.5295 22.1843 14.6891 23.7684 15.293 27.2327C15.4412 28.0647 15.3614 28.8624 15.1107 29.6601C15.0993 29.7285 15.0879 29.7854 15.0651 29.8538C14.9626 30.0362 14.8714 30.2299 14.7574 30.4122C13.7432 32.0874 12.2503 32.9194 10.2902 32.794C8.04519 32.6345 6.27881 30.9478 5.97111 28.7142C5.82296 27.6316 6.03949 26.6174 6.59789 25.6829C6.71185 25.4778 6.84861 25.2954 6.97396 25.0903C7.03094 25.0447 7.00815 24.9535 7.11071 24.9535Z" fill="#2E2F32"/>
</svg>
