<svg width="40" height="40" viewBox="0 0 40 40" fill="none" xmlns="http://www.w3.org/2000/svg">
<path d="M17.7455 34.0277C11.0483 32.8481 5.92578 27.0127 5.92578 19.9987C5.92578 12.1958 12.3096 5.81195 20.1126 5.81195C27.9155 5.81195 34.2983 12.1958 34.2983 19.9987C34.2983 27.0127 29.1758 32.8459 22.4763 34.0277L21.6884 33.3998H18.5357L17.7455 34.0277Z" fill="url(#paint0_linear_181_521)"/>
<path d="M25.6292 23.9394L26.2593 19.9987H22.4764V17.24C22.4764 16.1364 22.8704 15.2691 24.604 15.2691H26.4171V11.644C25.3919 11.4862 24.2895 11.3295 23.2632 11.3295C20.0321 11.3295 17.7457 13.3004 17.7457 16.8471V19.9999H14.2012V23.9405H17.7457V33.9516C19.3061 34.2668 20.9138 34.2668 22.4742 33.9516V23.9427L25.6292 23.9394Z" fill="white"/>
<path d="M10.5814 3.76068C8.16274 3.76068 7.45536 3.76318 7.31786 3.77458C6.8215 3.81584 6.51264 3.89399 6.17615 4.06153C5.91683 4.19029 5.71232 4.33956 5.51048 4.54879C5.14289 4.93037 4.92011 5.39982 4.83946 5.95784C4.80025 6.22874 4.78885 6.28399 4.78653 7.66774C4.78564 8.12898 4.78653 8.73602 4.78653 9.55024C4.78653 11.967 4.7892 12.6736 4.80079 12.8109C4.84089 13.2939 4.91663 13.5977 5.07704 13.9301C5.38358 14.5664 5.96905 15.044 6.65879 15.2223C6.89761 15.2837 7.16138 15.3176 7.50001 15.3337C7.64348 15.3399 9.10582 15.3443 10.569 15.3443C12.0323 15.3443 13.4955 15.3426 13.6354 15.3354C14.0275 15.317 14.2552 15.2864 14.5069 15.2214C14.8489 15.1337 15.1677 14.9724 15.4409 14.7487C15.7141 14.5251 15.9352 14.2445 16.0887 13.9266C16.246 13.6022 16.3257 13.2867 16.3618 12.829C16.3697 12.7292 16.373 11.1379 16.373 9.54873C16.373 7.95931 16.3694 6.37097 16.3615 6.27116C16.325 5.80599 16.2453 5.49321 16.0829 5.1626C15.9497 4.89197 15.8017 4.68986 15.587 4.48321C15.2038 4.11713 14.7351 3.89435 14.1764 3.81379C13.9058 3.77467 13.8519 3.76309 12.4671 3.76068H10.5814Z" fill="url(#paint1_radial_181_521)"/>
<path d="M10.5814 3.76068C8.16274 3.76068 7.45536 3.76318 7.31786 3.77458C6.82151 3.81584 6.51264 3.89399 6.17615 4.06153C5.91683 4.19029 5.71232 4.33956 5.51048 4.54879C5.14289 4.93037 4.92011 5.39982 4.83946 5.95784C4.80025 6.22874 4.78885 6.28399 4.78653 7.66774C4.78564 8.12898 4.78653 8.73602 4.78653 9.55024C4.78653 11.967 4.7892 12.6736 4.80079 12.8109C4.84089 13.2939 4.91663 13.5977 5.07704 13.9301C5.38358 14.5664 5.96905 15.044 6.65879 15.2223C6.89761 15.2837 7.16138 15.3176 7.50001 15.3336C7.64348 15.3399 9.10582 15.3443 10.569 15.3443C12.0323 15.3443 13.4955 15.3426 13.6354 15.3354C14.0275 15.317 14.2552 15.2864 14.5069 15.2214C14.8489 15.1337 15.1677 14.9724 15.4409 14.7487C15.7141 14.5251 15.9352 14.2445 16.0887 13.9266C16.246 13.6022 16.3257 13.2867 16.3618 12.829C16.3697 12.7292 16.373 11.1379 16.373 9.54873C16.373 7.95931 16.3694 6.37097 16.3615 6.27116C16.325 5.80599 16.2453 5.49321 16.0829 5.1626C15.9497 4.89197 15.8017 4.68986 15.587 4.48321C15.2038 4.11713 14.7351 3.89435 14.1764 3.81379C13.9058 3.77467 13.8519 3.76309 12.4671 3.76068H10.5814Z" fill="url(#paint2_radial_181_521)"/>
<path d="M10.5794 5.27557C9.41776 5.27557 9.27197 5.28065 8.81571 5.30142C8.36035 5.32227 8.04952 5.39436 7.77755 5.50014C7.49622 5.60939 7.25758 5.75553 7.01983 5.99338C6.7819 6.23113 6.63575 6.46977 6.52614 6.75101C6.4201 7.02307 6.34792 7.33399 6.32742 7.78917C6.3071 8.24543 6.30176 8.39131 6.30176 9.55298C6.30176 10.7147 6.30693 10.86 6.3276 11.3163C6.34854 11.7716 6.42063 12.0824 6.52632 12.3544C6.63566 12.6357 6.78181 12.8744 7.01965 13.1121C7.25731 13.3501 7.49596 13.4966 7.77711 13.6058C8.04926 13.7116 8.36017 13.7837 8.81545 13.8045C9.2717 13.8253 9.4174 13.8304 10.579 13.8304C11.7407 13.8304 11.8861 13.8253 12.3423 13.8045C12.7977 13.7837 13.1089 13.7116 13.381 13.6058C13.6623 13.4966 13.9006 13.3501 14.1382 13.1121C14.3762 12.8744 14.5223 12.6357 14.6319 12.3545C14.7371 12.0824 14.8093 11.7715 14.8306 11.3163C14.8511 10.8601 14.8565 10.7147 14.8565 9.55298C14.8565 8.39131 14.8511 8.24552 14.8306 7.78926C14.8093 7.3339 14.7371 7.02307 14.6319 6.7511C14.5223 6.46977 14.3762 6.23113 14.1382 5.99338C13.9003 5.75545 13.6624 5.6093 13.3808 5.50014C13.1081 5.39436 12.7971 5.32227 12.3417 5.30142C11.8855 5.28065 11.7402 5.27557 10.5782 5.27557H10.5794ZM10.1957 6.0464C10.3096 6.04622 10.4367 6.0464 10.5794 6.0464C11.7215 6.0464 11.8569 6.0505 12.3079 6.07099C12.7249 6.09006 12.9513 6.15975 13.102 6.2183C13.3016 6.29582 13.444 6.3885 13.5936 6.53821C13.7433 6.68792 13.836 6.8305 13.9137 7.03011C13.9722 7.18071 14.042 7.40706 14.061 7.82411C14.0815 8.27502 14.0859 8.41047 14.0859 9.552C14.0859 10.6935 14.0815 10.829 14.061 11.2799C14.0419 11.6969 13.9722 11.9233 13.9137 12.0739C13.8361 12.2735 13.7433 12.4156 13.5936 12.5653C13.4439 12.715 13.3017 12.8076 13.102 12.8852C12.9514 12.944 12.7249 13.0135 12.3079 13.0326C11.857 13.0531 11.7215 13.0575 10.5794 13.0575C9.43728 13.0575 9.30191 13.0531 8.851 13.0326C8.43396 13.0133 8.20761 12.9436 8.05674 12.8851C7.85713 12.8076 7.71455 12.7149 7.56484 12.5652C7.41513 12.4155 7.32245 12.2732 7.24475 12.0735C7.1862 11.9229 7.11643 11.6966 7.09744 11.2795C7.07695 10.8286 7.07285 10.6932 7.07285 9.55093C7.07285 8.40868 7.07695 8.27395 7.09744 7.82304C7.11651 7.40599 7.1862 7.17964 7.24475 7.02886C7.32228 6.82925 7.41513 6.68667 7.56484 6.53696C7.71455 6.38725 7.85713 6.29458 8.05674 6.21687C8.20752 6.15806 8.43396 6.08855 8.851 6.06939C9.24559 6.05157 9.39851 6.04622 10.1957 6.04533V6.0464ZM12.8627 6.75663C12.7611 6.75663 12.6619 6.78673 12.5775 6.84314C12.4931 6.89955 12.4273 6.97973 12.3884 7.07353C12.3496 7.16733 12.3394 7.27054 12.3593 7.37012C12.3791 7.46969 12.428 7.56115 12.4998 7.63293C12.5716 7.70471 12.6631 7.75358 12.7626 7.77336C12.8622 7.79315 12.9654 7.78296 13.0592 7.74408C13.153 7.7052 13.2332 7.63939 13.2895 7.55495C13.3459 7.47052 13.376 7.37126 13.376 7.26974C13.376 6.98636 13.1461 6.75645 12.8627 6.75645V6.75663ZM10.5794 7.35635C9.36634 7.35635 8.38281 8.33989 8.38281 9.55298C8.38281 10.7661 9.36634 11.7492 10.5794 11.7492C11.7925 11.7492 12.7758 10.7661 12.7758 9.55298C12.7758 8.33989 11.7924 7.35635 10.5793 7.35635H10.5794ZM10.5794 8.12718C11.3668 8.12718 12.0052 8.76549 12.0052 9.55298C12.0052 10.3404 11.3668 10.9788 10.5794 10.9788C9.79194 10.9788 9.15363 10.3404 9.15363 9.55298C9.15363 8.76549 9.79194 8.12718 10.5794 8.12718Z" fill="white"/>
<defs>
<linearGradient id="paint0_linear_181_521" x1="20.1291" y1="32.9384" x2="20.1291" y2="5.54616" gradientUnits="userSpaceOnUse">
<stop stop-color="#0062E0"/>
<stop offset="1" stop-color="#19AFFF"/>
</linearGradient>
<radialGradient id="paint1_radial_181_521" cx="0" cy="0" r="1" gradientUnits="userSpaceOnUse" gradientTransform="translate(7.8639 16.2365) rotate(-90) scale(11.4803 10.6805)">
<stop stop-color="#FFDD55"/>
<stop offset="0.1" stop-color="#FFDD55"/>
<stop offset="0.5" stop-color="#FF543E"/>
<stop offset="1" stop-color="#C837AB"/>
</radialGradient>
<radialGradient id="paint2_radial_181_521" cx="0" cy="0" r="1" gradientUnits="userSpaceOnUse" gradientTransform="translate(2.84528 4.59515) rotate(78.6776) scale(5.13178 21.1587)">
<stop stop-color="#3771C8"/>
<stop offset="0.128" stop-color="#3771C8"/>
<stop offset="1" stop-color="#6600FF" stop-opacity="0"/>
</radialGradient>
</defs>
</svg>
