<svg width="40" height="40" viewBox="0 0 40 40" fill="none" xmlns="http://www.w3.org/2000/svg">
<path d="M33.9993 20.6269C33.9993 19.6622 33.9059 18.6664 33.7503 17.7328H20.2754V23.241H27.9931C27.6819 25.0149 26.655 26.5709 25.1301 27.5667L29.7359 31.1455C32.4433 28.6248 33.9993 24.9526 33.9993 20.6269Z" fill="#4280EF"/>
<path d="M20.2768 34.5687C24.1356 34.5687 27.3721 33.2928 29.7372 31.1144L25.1315 27.5667C23.8556 28.4381 22.2062 28.936 20.2768 28.936C16.5424 28.936 13.3993 26.4153 12.2478 23.0543L7.51758 26.6954C9.94494 31.519 14.8619 34.5687 20.2768 34.5687Z" fill="#34A353"/>
<path d="M12.2473 23.0231C11.6561 21.2493 11.6561 19.3198 12.2473 17.546L7.5171 13.8738C5.4943 17.9194 5.4943 22.6808 7.5171 26.6953L12.2473 23.0231Z" fill="#F6B704"/>
<path d="M20.2768 11.6644C22.2996 11.6333 24.2912 12.4113 25.7539 13.8117L29.8306 9.70382C27.2476 7.27646 23.8244 5.96942 20.2768 6.00054C14.8619 6.00054 9.94494 9.0503 7.51758 13.8739L12.2478 17.5461C13.3993 14.154 16.5424 11.6644 20.2768 11.6644Z" fill="#E54335"/>
</svg>
