<svg width="85" height="85" viewBox="0 0 85 85" fill="none" xmlns="http://www.w3.org/2000/svg">
    <g clip-path="url(#clip0_874_2000)">
        <path d="M9.11719 30.3019H14.066C14.8074 23.7358 20.3788 18.6326 27.1433 18.6326C33.8655 18.6326 39.4098 23.6718 40.2067 30.1784H45.2315C44.6655 20.699 36.8001 13.1859 27.1781 13.1859C17.5148 13.1859 9.62185 20.7642 9.11719 30.3019V30.3019Z" fill="url(#paint0_linear_874_2000)"/>
        <path d="M70.961 56.1068C69.6251 61.9605 64.3873 66.3286 58.1287 66.3286C51.8702 66.3286 46.6322 61.9605 45.2964 56.1068H40.168C41.3501 64.9524 48.9245 71.7755 58.0938 71.7755C67.2629 71.7755 74.8372 64.9524 76.0198 56.1068H70.961V56.1068Z" fill="url(#paint1_linear_874_2000)"/>
        <path d="M27.0693 37.6197C30.1088 37.6197 32.5727 40.0836 32.5727 43.1231C32.5727 46.1626 30.1088 48.6265 27.0693 48.6265C24.0298 48.6265 21.5659 46.1626 21.5659 43.1231C21.5659 40.0836 24.0298 37.6197 27.0693 37.6197V37.6197ZM27.0693 33.0968C21.5321 33.0968 17.043 37.5856 17.043 43.1231C17.043 46.3794 18.5959 49.2729 21.001 51.1043C22.6858 52.3873 24.7883 53.1494 27.0693 53.1494C29.3503 53.1494 31.4528 52.3873 33.1376 51.1043C35.5427 49.2729 37.0956 46.3794 37.0956 43.1231C37.0956 37.5856 32.6068 33.0968 27.0693 33.0968" fill="white"/>
        <path d="M67.5367 39.9019C65.9922 34.924 60.7957 32.0516 55.7182 33.3595C51.7524 34.3812 48.6424 37.9953 48.5082 42.0775C48.391 45.6405 48.4539 49.2096 48.4414 52.7758C48.4412 52.8855 48.4859 52.9954 48.5114 53.1125H53.5914V52.3742C53.5921 49.2092 53.5682 46.0439 53.6005 42.8794C53.6332 39.6535 56.5171 37.4951 59.5605 38.4087C61.4028 38.962 62.8501 40.6306 62.8302 42.9586C62.8031 46.1232 62.8236 49.2884 62.8263 52.4535C62.8265 52.6655 62.8485 52.8776 62.8622 53.1223H67.9574C67.9694 52.9359 67.989 52.7727 67.989 52.6094C67.9905 49.3774 68.023 46.145 67.9697 42.9139C67.9528 41.9056 67.8341 40.8604 67.5367 39.9019" fill="white"/>
        <path d="M84.4688 33.176C83.0347 33.1783 81.6003 33.1717 80.1666 33.1949C78.9402 33.2147 77.7583 33.493 76.6572 34.0204C72.7509 35.8909 70.7973 39.04 70.7224 43.3322C70.6686 46.4001 70.7113 49.4698 70.7131 52.5385C70.7131 52.7201 70.7315 52.9017 70.7433 53.1179H75.9797C75.9797 52.8768 75.9795 52.6761 75.9797 52.4754C75.9797 49.4066 75.9664 46.3376 75.9917 43.2691C75.9965 42.6992 76.0744 42.1024 76.2599 41.5668C76.9451 39.5899 78.576 38.467 80.7589 38.4231C81.9536 38.3991 83.1491 38.4202 84.3442 38.4136C84.5403 38.4125 84.7361 38.3727 84.9467 38.3494V33.2203C84.7653 33.2028 84.6171 33.1758 84.4688 33.176" fill="white"/>
        <path d="M40.166 33.176V53.1226H45.3505V33.176H40.166Z" fill="white"/>
        <path d="M0.478343 53.1493C1.91343 53.147 3.34889 53.1536 4.78376 53.1305C6.01086 53.1107 7.19367 52.8322 8.29567 52.3045C12.2047 50.4324 14.1596 47.281 14.2346 42.9858C14.2883 39.9157 14.2457 36.844 14.2439 33.7732C14.2439 33.5914 14.2255 33.4095 14.2137 33.1931H8.9736V33.8363C8.9736 36.9071 8.98673 39.9784 8.96156 43.049C8.95677 43.6192 8.87869 44.2166 8.693 44.7526C8.0076 46.7309 6.37544 47.8545 4.19099 47.8986C2.99543 47.9226 1.799 47.9015 0.60301 47.9081C0.406856 47.9092 0.21092 47.949 0 47.9723V53.105C0.181606 53.1225 0.330083 53.1495 0.478343 53.1493" fill="white"/>
    </g>
    <defs>
        <linearGradient id="paint0_linear_874_2000" x1="9.11708" y1="21.7439" x2="45.2315" y2="21.7439" gradientUnits="userSpaceOnUse">
            <stop stop-color="#F8E800"/>
            <stop offset="1" stop-color="#00A0B1"/>
        </linearGradient>
        <linearGradient id="paint1_linear_874_2000" x1="40.1681" y1="63.9411" x2="76.0198" y2="63.9411" gradientUnits="userSpaceOnUse">
            <stop stop-color="#F8E800"/>
            <stop offset="1" stop-color="#00A0B1"/>
        </linearGradient>
        <clipPath id="clip0_874_2000">
            <rect width="85" height="85" fill="white"/>
        </clipPath>
    </defs>
</svg>
